<?xml version="1.0" encoding="utf-8"?>
<!-- Generator: Adobe Illustrator 23.0.3, SVG Export Plug-In . SVG Version: 6.00 Build 0)  -->
<svg version="1.1" id="Livello_1" focusable="false"
	 xmlns="http://www.w3.org/2000/svg" xmlns:xlink="http://www.w3.org/1999/xlink" x="0px" y="0px" viewBox="0 0 512 512"
	 style="enable-background:new 0 0 512 512;" xml:space="preserve">
<path d="M256.9,256.6c70.9,0,128.3-57.4,128.3-128.3S327.8,0,256.9,0S128.6,57.4,128.6,128.3S186,256.6,256.9,256.6z M346.7,288.7
	H330c-22.3,10.2-47,16-73.1,16c-26.1,0-50.7-5.8-73.1-16h-16.7c-74.4,0-134.7,60.4-134.7,134.7v41.7c0,26.6,21.6,48.1,48.1,48.1
	h352.9c26.6,0,48.1-21.6,48.1-48.1v-41.7C481.4,349.1,421.1,288.7,346.7,288.7z"/>
</svg>
