<?xml version="1.0" encoding="utf-8"?>
<!-- Generator: Adobe Illustrator 23.0.3, SVG Export Plug-In . SVG Version: 6.00 Build 0)  -->
<svg version="1.1" id="Livello_1" focusable="false"
	 xmlns="http://www.w3.org/2000/svg" xmlns:xlink="http://www.w3.org/1999/xlink" x="0px" y="0px" viewBox="0 0 512 512"
	 style="enable-background:new 0 0 512 512;" xml:space="preserve">
<path d="M464.2,256.7h-79.7V193c0-35.2,28.6-63.8,63.8-63.8h8c13.3,0,23.9-10.7,23.9-23.9V57.4c0-13.3-10.7-23.9-23.9-23.9h-8
	c-88.1,0-159.5,71.4-159.5,159.5v239.2c0,26.4,21.4,47.8,47.8,47.8h127.6c26.4,0,47.8-21.4,47.8-47.8V304.6
	C512,278.2,490.6,256.7,464.2,256.7z M177.1,256.7H97.4V193c0-35.2,28.6-63.8,63.8-63.8h8c13.3,0,23.9-10.7,23.9-23.9V57.4
	c0-13.3-10.7-23.9-23.9-23.9h-8C73.1,33.5,1.7,104.9,1.7,193v239.2c0,26.4,21.4,47.8,47.8,47.8h127.6c26.4,0,47.8-21.4,47.8-47.8
	V304.6C225,278.2,203.6,256.7,177.1,256.7z"/>
</svg>
