<?xml version="1.0" encoding="utf-8"?>
<!-- Generator: Adobe Illustrator 23.0.3, SVG Export Plug-In . SVG Version: 6.00 Build 0)  -->
<svg version="1.1" id="Livello_1" focusable="false"
	 xmlns="http://www.w3.org/2000/svg" xmlns:xlink="http://www.w3.org/1999/xlink" x="0px" y="0px" viewBox="0 0 512 512"
	 style="enable-background:new 0 0 512 512;" xml:space="preserve">
<g>
	<path d="M512,217.2c0,5.3,0,10.6,0,16c-0.4,1.2-1,2.5-1.1,3.7c-4.4,36.1-33,66.8-68.7,73.8c-10.2,2-10.2,2-12.1,11.8
		c-9.2,46.7-55.6,77.9-102.2,68c-10.2-2.2-20-6.6-30.8-10.2c-20.6,21.4-46.8,31.8-77.8,26.9c-30.9-4.9-52.7-22.8-66.6-50.7
		c-14.5,4.7-28.8,5.3-43.1,1.5C59.3,344.6,35.3,290.6,59,244.3c1.5-2.9,1.1-4.5-1-6.8c-20.6-22.4-28.2-48.7-22.4-78.6
		c8.3-43,51.6-74.2,95-68.4c6.2,0.8,12.3,2.2,18.4,3.3c25.8-81.1,135.3-91.7,175.5-19c1.4-0.9,2.8-1.7,4.1-2.6
		c13.2-8.7,27.8-13.5,43.5-14.2c48.9-2.2,90,35.8,91.6,84.8c0.1,3.5,1.4,5.2,4.2,6.9c22.6,13.5,36.8,33,42,58.9
		C510.6,211.4,511.3,214.3,512,217.2z M360.9,235.7c14.9-0.4,26.4-12.4,26-27c-0.4-14.8-12.5-26.5-27.1-26.1
		c-14.8,0.4-26.5,12.6-26.1,27.1C334.3,224.5,346.4,236.1,360.9,235.7z M264.3,235.7c14.6,0.3,26.7-11.4,27-26.1
		c0.3-14.7-11.3-26.6-26.1-26.9c-14.6-0.4-26.8,11.4-27,26.1C238,223.5,249.4,235.3,264.3,235.7z M195.5,209.1
		c0-14.6-11.6-26.4-26.2-26.4c-15.2-0.1-26.9,11.6-26.8,26.8c0,14.5,11.8,26.1,26.4,26.2C183.8,235.7,195.5,224,195.5,209.1z"/>
	<path d="M49.6,408.8c-0.1-17.4,14.1-31.7,31.5-31.8c17.4-0.1,31.8,14.1,31.8,31.5c0.1,17.4-14.1,31.7-31.5,31.8
		C64,440.4,49.7,426.1,49.6,408.8z"/>
	<path d="M49.1,464.2c0.1,13.1-10.5,23.8-23.6,24c-12.9,0.1-23.8-10.7-23.8-23.7c0-13,10.7-23.7,23.8-23.7
		C38.3,440.8,49,451.4,49.1,464.2z"/>
</g>
</svg>
