<?xml version="1.0" encoding="utf-8"?>
<!-- Generator: Adobe Illustrator 23.0.3, SVG Export Plug-In . SVG Version: 6.00 Build 0)  -->
<svg version="1.1" id="Livello_1" focusable="false"
	 xmlns="http://www.w3.org/2000/svg" xmlns:xlink="http://www.w3.org/1999/xlink" x="0px" y="0px" viewBox="0 0 512 512"
	 style="enable-background:new 0 0 512 512;" xml:space="preserve">
<path d="M490.7,86.1H101c-18.5,0-34.2,11.9-40.1,28.3H23c-11.7,0-21.3,9.5-21.3,21.3v241c0,27.4,22.2,49.6,49.6,49.6h439.4
	c11.7,0,21.3-9.5,21.3-21.3V107.4C512,95.6,502.5,86.1,490.7,86.1z M44.3,376.7V157h14.2v219.7c0,3.9-3.2,7.1-7.1,7.1
	S44.3,380.6,44.3,376.7z M469.5,383.8h-369c0.3-2.3,0.5-4.7,0.5-7.1v-248h368.5V383.8z M154.1,277.5h120.5c5.9,0,10.6-4.8,10.6-10.6
	v-85c0-5.9-4.8-10.6-10.6-10.6H154.1c-5.9,0-10.6,4.8-10.6,10.6v85C143.5,272.7,148.2,277.5,154.1,277.5z M178.9,206.6h70.9V242
	h-70.9V206.6z M143.5,330.6v-21.3c0-5.9,4.8-10.6,10.6-10.6h120.5c5.9,0,10.6,4.8,10.6,10.6v21.3c0,5.9-4.8,10.6-10.6,10.6H154.1
	C148.2,341.2,143.5,336.5,143.5,330.6z M313.6,330.6v-21.3c0-5.9,4.8-10.6,10.6-10.6h92.1c5.9,0,10.6,4.8,10.6,10.6v21.3
	c0,5.9-4.8,10.6-10.6,10.6h-92.1C318.3,341.2,313.6,336.5,313.6,330.6z M313.6,203v-21.3c0-5.9,4.8-10.6,10.6-10.6h92.1
	c5.9,0,10.6,4.8,10.6,10.6V203c0,5.9-4.8,10.6-10.6,10.6h-92.1C318.3,213.7,313.6,208.9,313.6,203z M313.6,266.8v-21.3
	c0-5.9,4.8-10.6,10.6-10.6h92.1c5.9,0,10.6,4.8,10.6,10.6v21.3c0,5.9-4.8,10.6-10.6,10.6h-92.1C318.3,277.5,313.6,272.7,313.6,266.8
	z"/>
</svg>
