<?xml version="1.0" encoding="utf-8"?>
<!-- Generator: Adobe Illustrator 23.0.3, SVG Export Plug-In . SVG Version: 6.00 Build 0)  -->
<svg version="1.1" id="Livello_1" focusable="false"
	 xmlns="http://www.w3.org/2000/svg" xmlns:xlink="http://www.w3.org/1999/xlink" x="0px" y="0px" viewBox="0 0 512 512"
	 style="enable-background:new 0 0 512 512;" xml:space="preserve">
<path d="M357.6,335.1l28.4-28.4c4.4-4.4,12.2-1.3,12.2,5.1v129.2c0,23.6-19.1,42.7-42.7,42.7H42.7C19.1,483.6,0,464.5,0,440.9V128
	c0-23.6,19.1-42.7,42.7-42.7h243.1c6.3,0,9.5,7.6,5.1,12.2L262.4,126c-1.3,1.3-3.1,2-5.1,2H42.7v312.9h312.9V340
	C355.6,338.2,356.3,336.4,357.6,335.1z M496.8,155.7L263.4,389.1L183,398c-23.3,2.6-43.1-17.1-40.5-40.5l8.9-80.4L384.8,43.7
	c20.4-20.4,53.2-20.4,73.5,0l38.4,38.4C517.1,102.4,517.1,135.4,496.8,155.7L496.8,155.7z M409,183.1l-51.6-51.6L192.2,296.7
	l-6.5,58l58-6.5L409,183.1z M466.6,112.3l-38.4-38.4c-3.6-3.6-9.6-3.6-13.2,0l-27.5,27.5l51.6,51.6l27.5-27.5
	C470.2,121.8,470.2,115.9,466.6,112.3z"/>
</svg>
