<?xml version="1.0" encoding="utf-8"?>
<!-- Generator: Adobe Illustrator 23.0.3, SVG Export Plug-In . SVG Version: 6.00 Build 0)  -->
<svg version="1.1" id="Livello_1" focusable="false"
	 xmlns="http://www.w3.org/2000/svg" xmlns:xlink="http://www.w3.org/1999/xlink" x="0px" y="0px" viewBox="0 0 512 512"
	 style="enable-background:new 0 0 512 512;" xml:space="preserve">
<g id="UPEt8G_1_">
	<g>
		<path d="M4.3,242.6c0-36.7,0.4-73.4-0.2-110.2c-0.3-20,13-38.7,32.3-45.8c48.7-17.9,97.2-36.3,145.8-54.5
			c19.6-7.3,39.1-14.8,58.7-22c11.2-4.1,22.4-3.6,33.5,0.6c68.3,25.7,136.7,51.3,205,76.9c18.1,6.8,30.1,23.6,30.1,42.8
			c0.1,75.2,0.2,150.4,0,225.6c-0.1,18.1-8.9,31.9-24.8,39.9c-68.8,34.7-137.8,69.1-206.7,103.5c-14,7-28.3,6.8-42.3-0.2
			c-69.2-34.5-138.4-68.9-207.3-103.8C13.2,387.8,4.7,374.2,4.5,357C4,318.9,4.3,280.7,4.3,242.6C4.3,242.6,4.3,242.6,4.3,242.6z
			 M51.6,131.1c0,0.3-0.1,0.7-0.1,1c0.8,0.4,1.6,0.9,2.5,1.3c8.1,3.4,16.3,6.7,24.4,10c58.2,23.7,116.5,47.3,174.7,71
			c2.8,1.1,5.1,1.1,7.9,0c25.5-10.5,51.1-20.8,76.6-31.2c40.6-16.5,81.3-33,121.9-49.5c1-0.4,2-1,4-2.1c-2.9-1.2-4.9-2-6.9-2.8
			c-29.2-11-58.4-21.9-87.7-32.9c-36.2-13.6-72.4-27.2-108.7-40.6c-1.9-0.7-4.4-0.7-6.3-0.1c-14.5,5.2-28.8,10.7-43.2,16.1
			c-47,17.6-94,35.3-141.1,52.9C63.6,126.5,57.6,128.8,51.6,131.1z M233.6,445.8c0.1-2.5,0.3-4.2,0.3-6c0-57.7,0-115.4,0-173.2
			c0-9.7,0-9.7-9-13.4c-56.4-22.9-112.9-45.8-169.3-68.6c-1.3-0.5-2.6-0.8-4.4-1.4c-0.1,1.7-0.3,3-0.3,4.3c0,54.3,0,108.6-0.1,162.9
			c0,3.1,1,4.7,3.7,6.1c58.3,29.1,116.7,58.3,175,87.4C230.6,444.6,231.7,445,233.6,445.8z M280.9,445.3c1.8-0.7,3.1-1.1,4.3-1.7
			c58.2-29.1,116.4-58.2,174.6-87.2c2.8-1.4,3.7-3.3,3.7-6.3c0-54.2,0-108.4,0-162.6c0-4.4-0.5-4.7-4.5-3.1
			c-10.2,4.1-20.3,8.3-30.5,12.5c-48.1,19.5-96.1,39-144.2,58.4c-2.6,1-3.7,2.4-3.7,5.3c0.1,60.1,0.1,120.2,0.1,180.4
			C280.5,442.2,280.7,443.5,280.9,445.3z"/>
	</g>
</g>
</svg>
