<?xml version="1.0" encoding="utf-8"?>
<!-- Generator: Adobe Illustrator 23.0.3, SVG Export Plug-In . SVG Version: 6.00 Build 0)  -->
<svg version="1.1" id="Livello_1" focusable="false"
	 xmlns="http://www.w3.org/2000/svg" xmlns:xlink="http://www.w3.org/1999/xlink" x="0px" y="0px" viewBox="0 0 512 512"
	 style="enable-background:new 0 0 512 512;" xml:space="preserve">
<path d="M180.8,288.4h-40.1c-6.6,0-12-5.4-12-12v-40.1c0-6.6,5.4-12,12-12h40.1c6.6,0,12,5.4,12,12v40.1
	C192.8,283,187.4,288.4,180.8,288.4z M288.9,276.4v-40.1c0-6.6-5.4-12-12-12h-40.1c-6.6,0-12,5.4-12,12v40.1c0,6.6,5.4,12,12,12
	h40.1C283.5,288.4,288.9,283,288.9,276.4z M385.1,276.4v-40.1c0-6.6-5.4-12-12-12H333c-6.6,0-12,5.4-12,12v40.1c0,6.6,5.4,12,12,12
	H373C379.7,288.4,385.1,283,385.1,276.4z M288.9,372.5v-40.1c0-6.6-5.4-12-12-12h-40.1c-6.6,0-12,5.4-12,12v40.1c0,6.6,5.4,12,12,12
	h40.1C283.5,384.6,288.9,379.2,288.9,372.5z M192.8,372.5v-40.1c0-6.6-5.4-12-12-12h-40.1c-6.6,0-12,5.4-12,12v40.1
	c0,6.6,5.4,12,12,12h40.1C187.4,384.6,192.8,379.2,192.8,372.5z M385.1,372.5v-40.1c0-6.6-5.4-12-12-12H333c-6.6,0-12,5.4-12,12
	v40.1c0,6.6,5.4,12,12,12H373C379.7,384.6,385.1,379.2,385.1,372.5z M481.2,112.2v352.5c0,26.5-21.5,48.1-48.1,48.1H80.6
	c-26.5,0-48.1-21.5-48.1-48.1V112.2c0-26.5,21.5-48.1,48.1-48.1h48.1V12c0-6.6,5.4-12,12-12h40.1c6.6,0,12,5.4,12,12v52.1H321V12
	c0-6.6,5.4-12,12-12H373c6.6,0,12,5.4,12,12v52.1h48.1C459.7,64.1,481.2,85.6,481.2,112.2z M433.1,458.7V160.2H80.6v298.4
	c0,3.3,2.7,6,6,6h340.5C430.4,464.7,433.1,462,433.1,458.7z"/>
</svg>
