<?xml version="1.0" encoding="utf-8"?>
<!-- Generator: Adobe Illustrator 23.0.3, SVG Export Plug-In . SVG Version: 6.00 Build 0)  -->
<svg version="1.1" id="Livello_1" focusable="false"
	 xmlns="http://www.w3.org/2000/svg" xmlns:xlink="http://www.w3.org/1999/xlink" x="0px" y="0px" viewBox="0 0 512 512"
	 style="enable-background:new 0 0 512 512;" xml:space="preserve">
<path d="M123,240.2c-2.8-9.6-6.2-26.5-6.2-26.5h-0.4c0,0-3.4,16.8-6.2,26.5l-8.8,29.9h30.4L123,240.2z M492.9,128.4H269.6v255.1
	h223.2c10.6,0,19.1-8.5,19.1-19.1V147.5C512,136.9,503.5,128.4,492.9,128.4z M473.7,224c0,5.3-4.3,9.6-9.6,9.6h-9.1
	c-5.5,18.8-17.3,37.8-34,55.7c6.7,5.1,13.6,10,20.8,14.4c4.4,2.7,5.8,8.4,3.3,12.9l-6.3,11.1c-2.7,4.7-8.7,6.2-13.3,3.4
	c-10-6.2-19.5-12.8-28.2-19.9c-8.7,6.9-18.1,13.6-28.2,19.9c-4.6,2.8-10.6,1.3-13.3-3.4l-6.3-11.1c-2.6-4.5-1.1-10.2,3.3-12.9
	c7.4-4.5,14.4-9.3,20.8-14.4c-6.3-6.7-11.9-13.6-16.7-20.5c-3.2-4.5-1.8-10.8,2.9-13.6l5.2-3.1l5.8-3.4c4.3-2.6,9.9-1.4,12.8,2.7
	c4,5.6,8.6,11.2,13.9,16.7c10.8-11.3,19-23,23.9-34.4h-91.1c-5.3,0-9.6-4.3-9.6-9.6v-12.8c0-5.3,4.3-9.6,9.6-9.6h51V189
	c0-5.3,4.3-9.6,9.6-9.6h12.8c5.3,0,9.6,4.3,9.6,9.6v12.8h51c5.3,0,9.6,4.3,9.6,9.6V224z M1.7,147.5v216.9c0,10.6,8.5,19.1,19.1,19.1
	h223.2V128.4H20.9C10.3,128.4,1.7,136.9,1.7,147.5z M48.7,319.8L94.6,185c1.4-3.9,4.9-6.5,9.1-6.5h25.9c4.1,0,7.7,2.6,9.1,6.5
	l45.8,134.8c2.1,6.2-2.5,12.7-9.1,12.7h-18.3c-4.2,0-8-2.8-9.2-6.9l-7.5-25.4h-48l-7.3,25.4c-1.2,4.1-4.9,6.9-9.2,6.9H57.8
	C51.3,332.5,46.6,326,48.7,319.8z"/>
</svg>
